# xmcd CD database file
# Copyright (C) 1997 Ti Kan
# 
# Track frame offsets:
#     150
#     9920
#     32877
#     54845
#     71207
#     78242
#     97537
#     105150
#     129300
#     148867
#     170185
# 
# Disc length: 2536 seconds
# 
# Revision: 1
# Processed by: cddbd v1.4b41PL1 Copyright (c) Steve Scherf et al.
# Submitted via: DiscPlay 4.0.4
# 
DISCID=8209e60b
DTITLE=Steve Hill - Steve Hill
DYEAR=1900
DGENRE=
TTITLE0=Hit the Bee Flat
TTITLE1=Way Down Below
TTITLE2=Simple Things
TTITLE3=Blues Guitar Man
TTITLE4=Belvedere Heights
TTITLE5=So Long, Farewell, Goodbye
TTITLE6=Peace of Mine (intro)
TTITLE7=Peace of Mine
TTITLE8=I'm a King Bee
TTITLE9=Waiting For You
TTITLE10=Clearwater
EXTD=
EXTT0=
EXTT1=
EXTT2=
EXTT3=
EXTT4=
EXTT5=
EXTT6=
EXTT7=
EXTT8=
EXTT9=
EXTT10=
PLAYORDER=
